<?xml version="1.0" standalone="no"?>
<!-- <!DOCTYPE svg PUBLIC "-//W3C//DTD SVG 20010904//EN"
 "http://www.w3.org/TR/2001/REC-SVG-20010904/DTD/svg10.dtd"> -->
<svg version="1.0" xmlns="http://www.w3.org/2000/svg"
 width="2000.000000pt" height="1500.000000pt" viewBox="0 0 2000.000000 1500.000000"
 preserveAspectRatio="xMidYMid meet">

<g transform="translate(0.000000,1500.000000) scale(0.100000,-0.100000)"
fill="#777" stroke="none">
<path d="M0 7500 l0 -7500 10000 0 10000 0 0 7500 0 7500 -10000 0 -10000 0 0
-7500z m14940 3505 l0 -1455 -160 0 -160 0 0 1295 0 1295 -4620 0 -4620 0 0
-1295 0 -1295 -160 0 -160 0 0 1455 0 1455 4940 0 4940 0 0 -1455z m-6625
-1723 c319 -70 487 -227 489 -457 1 -69 -3 -88 -28 -140 -55 -112 -168 -199
-332 -255 -72 -25 -120 -26 -129 -3 -10 29 34 57 110 71 37 7 85 22 105 32
112 57 160 218 108 357 -28 76 -145 196 -235 242 -123 61 -198 76 -388 75
-144 0 -189 -5 -297 -27 -156 -33 -339 -92 -438 -142 -213 -106 -373 -283
-395 -436 -17 -116 39 -244 155 -352 100 -93 186 -143 504 -292 564 -264 724
-360 846 -511 53 -66 120 -198 139 -276 30 -125 3 -294 -67 -434 -166 -326
-497 -627 -907 -825 -289 -140 -590 -206 -985 -216 -553 -14 -946 111 -1244
396 -127 123 -207 261 -247 428 -18 76 -20 111 -17 248 4 141 8 170 32 245 92
277 270 540 474 698 97 75 242 138 265 115 4 -3 -55 -67 -131 -142 -147 -144
-198 -213 -276 -368 -103 -205 -141 -370 -141 -608 0 -195 11 -250 76 -380
165 -332 536 -509 1114 -532 551 -21 1120 191 1455 543 221 232 330 536 276
768 -35 147 -144 295 -286 389 -85 56 -307 166 -520 257 -369 159 -566 271
-664 380 -99 110 -146 223 -146 354 0 108 25 191 88 287 55 84 187 215 280
278 188 127 428 209 722 247 156 20 517 12 635 -14z m6587 -738 l37 -6 -43
-62 c-175 -245 -759 -1332 -949 -1765 -117 -264 -154 -405 -127 -485 15 -46
44 -66 95 -66 120 0 285 201 475 580 56 111 78 138 102 124 20 -12 -2 -78 -75
-228 -139 -283 -293 -479 -427 -544 -126 -61 -214 -52 -291 28 -70 72 -92 139
-87 267 2 56 1 99 -3 95 -3 -4 -35 -50 -70 -102 -35 -52 -104 -136 -154 -186
-74 -75 -101 -95 -150 -114 -119 -44 -269 -8 -329 79 -40 57 -49 90 -55 198
l-6 103 -65 -98 c-79 -118 -216 -260 -283 -292 -56 -26 -126 -29 -177 -8 -49
21 -107 84 -125 137 -19 56 -19 175 0 265 8 38 13 71 12 72 -2 2 -27 -33 -56
-77 -280 -424 -554 -533 -683 -272 -26 53 -32 80 -36 149 l-5 85 -59 -93 c-76
-116 -174 -215 -253 -254 -123 -60 -264 -40 -340 49 -49 57 -58 94 -52 201 8
151 59 277 216 540 79 134 95 181 65 203 -30 22 -90 9 -153 -33 -88 -60 -328
-306 -413 -424 -88 -122 -181 -271 -263 -422 -53 -99 -62 -109 -99 -122 -23
-8 -72 -17 -111 -21 -38 -3 -80 -9 -93 -12 -23 -5 -22 -2 17 76 38 74 42 104
10 65 -20 -25 -125 -74 -179 -84 -90 -17 -233 22 -284 79 l-18 20 -42 -28
c-159 -109 -318 -136 -444 -75 -85 41 -131 128 -147 275 -23 215 111 549 313
783 172 198 357 306 524 306 92 0 140 -15 192 -61 108 -95 134 -321 61 -542
-58 -178 -170 -367 -300 -505 -41 -44 -75 -87 -75 -95 0 -28 66 -75 123 -87
106 -22 188 17 298 141 39 45 92 113 117 153 26 39 180 340 344 668 163 329
354 707 424 840 275 525 282 531 517 512 l76 -7 -43 -56 c-101 -131 -254 -389
-493 -831 -181 -336 -483 -936 -453 -900 133 156 175 202 254 277 219 209 579
413 728 413 26 0 48 -2 48 -4 0 -2 -28 -52 -61 -112 -90 -160 -270 -515 -313
-619 -138 -330 -151 -515 -36 -515 115 0 342 293 465 600 99 248 281 493 451
611 70 48 202 107 288 129 159 40 302 18 413 -64 72 -53 94 -93 69 -131 -27
-41 -57 -32 -88 24 -54 98 -174 118 -304 53 -204 -103 -440 -379 -615 -719
-64 -126 -92 -218 -93 -308 0 -146 65 -188 191 -125 138 69 308 291 515 673
94 175 140 239 189 266 38 22 48 23 155 16 l114 -7 -28 -36 c-46 -59 -115
-178 -191 -331 -116 -230 -142 -307 -161 -473 -14 -121 8 -159 83 -142 94 20
349 369 462 634 63 147 169 310 277 426 107 114 240 195 384 235 111 30 262
24 354 -14 36 -15 69 -29 73 -30 10 -2 274 515 366 718 196 430 205 440 376
430 50 -2 107 -8 127 -11z m-9522 -4389 l0 -1295 4620 0 4620 0 0 1295 0 1295
160 0 160 0 0 -1455 0 -1455 -4940 0 -4940 0 0 1455 0 1455 160 0 160 0 0
-1295z"/>
<path d="M13810 7381 c-148 -48 -395 -279 -557 -521 -178 -265 -251 -504 -191
-620 30 -58 63 -75 120 -60 101 28 213 143 373 385 141 213 445 741 445 773 0
32 -134 62 -190 43z"/>
<path d="M9598 7315 c-128 -47 -288 -218 -403 -430 -190 -350 -240 -665 -116
-729 63 -33 166 -9 255 59 l34 26 -26 57 c-49 108 -38 242 25 292 29 23 97 27
138 8 36 -16 68 -72 63 -108 -3 -17 -3 -30 -2 -30 7 0 110 190 151 277 89 191
122 411 76 514 -32 72 -106 97 -195 64z"/>
</g>
</svg>
